<svg width="1047" height="900" viewBox="0 0 1047 900" fill="none" xmlns="http://www.w3.org/2000/svg">
<path d="M297.15 356.797C568.042 184.882 697.379 -45.9519 728.186 -139.879L1027.76 -258C1210.48 -237.127 1583.72 -184.281 1614.96 -139.879C1654 -84.3767 1560.78 43.706 1447.64 54.3796C1334.5 65.0531 1054.85 356.797 961.631 447.167C868.412 537.536 856.461 985.114 615.846 1047.73C375.231 1110.35 90.7949 1019.98 32.6329 884.783C-25.529 749.584 -41.4638 571.692 297.15 356.797Z" fill="#FF7200" fill-opacity="0.27"/>
<path d="M590.623 198.081C542.123 260.581 469.123 356.081 442.623 378.581C421.423 396.581 279.623 531.748 208.123 587.081C139.956 656.581 56.6957 804.385 208.123 925.081C378.123 1060.58 521.623 1022.58 554.123 986.081C586.623 949.581 651.123 793.081 673.623 730.581C696.123 668.081 752.123 526.581 805.123 469.581C858.123 412.581 967.623 328.081 983.623 309.581C996.423 294.781 1010.62 284.415 1016.12 281.081L1169.62 149.581C1176.46 68.5814 1172.72 -94.6186 1103.12 -99.4186C1016.12 -105.419 842.123 -142.419 823.623 -75.4186C808.823 -21.8186 779.456 42.5489 766.623 68.0327C727.951 88.8218 639.123 135.581 590.623 198.081Z" fill="#FA8B31"/>
</svg>
